<?xml version="1.0" encoding="UTF-8"?>
<!DOCTYPE svg PUBLIC "-//W3C//DTD SVG 1.1//EN" "http://www.w3.org/Graphics/SVG/1.1/DTD/svg11.dtd">
<svg version="1.1" xmlns="http://www.w3.org/2000/svg" xmlns:xlink="http://www.w3.org/1999/xlink" width="20" height="20">
 <path fill="#ccc" d="M9.96094 19.9219Q12.002 19.9219 13.8037 19.1406Q15.6055 18.3594 16.9824 16.9824Q18.3594 15.6055 19.1406 13.8037Q19.9219 12.002 19.9219 9.96094Q19.9219 7.91992 19.1406 6.11816Q18.3594 4.31641 16.9824 2.93945Q15.6055 1.5625 13.7988 0.78125Q11.9922 0 9.95117 0Q7.91016 0 6.1084 0.78125Q4.30664 1.5625 2.93457 2.93945Q1.5625 4.31641 0.78125 6.11816Q0 7.91992 0 9.96094Q0 12.002 0.78125 13.8037Q1.5625 15.6055 2.93945 16.9824Q4.31641 18.3594 6.11816 19.1406Q7.91992 19.9219 9.96094 19.9219ZM6.67969 14.0625Q6.34766 14.0625 6.11328 13.8232Q5.87891 13.584 5.87891 13.252Q5.87891 12.9199 6.11328 12.6855L8.82812 9.9707L6.11328 7.26562Q5.87891 7.02148 5.87891 6.69922Q5.87891 6.35742 6.11328 6.12793Q6.34766 5.89844 6.67969 5.89844Q7.00195 5.89844 7.24609 6.12305L9.9707 8.83789L12.7148 6.11328Q12.9492 5.87891 13.2715 5.87891Q13.6035 5.87891 13.8379 6.11328Q14.0723 6.34766 14.0723 6.67969Q14.0723 7.01172 13.8379 7.25586L11.1133 9.9707L13.8281 12.6758Q14.0625 12.8906 14.0625 13.252Q14.0625 13.584 13.8281 13.8232Q13.5938 14.0625 13.252 14.0625Q12.9004 14.0625 12.6758 13.8281L9.9707 11.1133L7.27539 13.8281Q7.03125 14.0625 6.67969 14.0625Z"/>
</svg>